<svg xmlns="http://www.w3.org/2000/svg" xmlns:xlink="http://www.w3.org/1999/xlink" version="1.1" x="0px" y="0px" viewBox="0 0 100 125" enable-background="new 0 0 100 100" xml:space="preserve"><g><path fill="#000000" d="M70.525,50.749c-0.136-0.246-0.384-1.096-0.758-2.532c-0.376-1.425-0.91-3.196-1.521-5.26   c-0.573-2.093-1.29-4.359-1.969-6.791c-0.664-2.445-1.341-4.798-1.997-7.065c-0.616-1.737-1.715-3.313-3.248-4.689   c-1.573-1.419-3.338-2.065-5.157-2.065H44.132c-1.758,0-3.442,0.646-5.055,2.065c-1.629,1.368-2.675,2.952-3.153,4.689   c-0.812,2.268-1.472,4.62-2.195,7.065c-0.705,2.432-1.376,4.698-1.998,6.791c-0.628,2.063-1.143,3.835-1.531,5.26   c-0.335,1.437-0.623,2.286-0.72,2.532c-0.143,0.286-0.19,0.573-0.19,0.923c0,1.274,0.677,2.172,2.06,2.684l0.76,0.182   c1.483,0,2.427-0.693,2.864-2.125c0.049-0.468,6.043-20.418,6.043-20.418c0.133-0.453,0.607-0.71,1.06-0.577   c0.451,0.134,0.711,0.608,0.576,1.06l-8.51,28.628h8.055l0.082,30.524c0,1.006,0.328,1.841,1.041,2.441   c0.669,0.631,1.531,0.93,2.534,0.93c1.001,0,1.814-0.299,2.437-0.93c0.629-0.601,0.957-1.436,0.957-2.441l-0.082-30.524h1.731   l0.083,30.524c0,1.006,0.28,1.841,0.903,2.441c0.656,0.631,1.428,0.93,2.475,0.93c0.997,0,1.807-0.299,2.483-0.93   c0.76-0.601,1.047-1.436,1.047-2.441l-0.083-30.524h8.005l-8.427-28.803c-0.054-0.407,0.181-0.806,0.587-0.926   c0.452-0.133,0.927,0.124,1.06,0.576c0,0,5.908,19.992,6.019,20.46c0.376,1.432,1.332,2.125,2.858,2.125l0.705-0.192   c1.381-0.397,2.1-1.299,2.1-2.841L70.525,50.749z"/><path fill="#000000" d="M50.392,20.24c2.091,0,3.882-0.685,5.269-2.119c1.435-1.465,2.183-3.285,2.183-5.481   c0-2.091-0.748-3.883-2.183-5.361C54.281,5.757,52.482,5,50.392,5c-2.225,0-4.075,0.757-5.61,2.278   c-1.486,1.473-2.217,3.271-2.217,5.361c0,2.196,0.73,4.017,2.224,5.481C46.323,19.556,48.173,20.24,50.392,20.24z"/></g><text x="0" y="115" fill="#000000" font-size="5px" font-weight="bold" font-family="'Helvetica Neue', Helvetica, Arial-Unicode, Arial, Sans-serif">Created by Ferran Brown</text><text x="0" y="120" fill="#000000" font-size="5px" font-weight="bold" font-family="'Helvetica Neue', Helvetica, Arial-Unicode, Arial, Sans-serif">from the Noun Project</text></svg>